:SAMPLES-PER-SECOND 30
:FULLY-SPECIFIED
:DEGREES
132
root  -2.74344 40.9885 1.18938 166.278 -88.4845 -165.384
RightUpLeg  4.01316 -0.359638 -0.299009
RightLeg  -4.17434 -16.0616 1.02802
RightFoot  0.149351 -0.216303 2.08199
RightToes  -3.10678e-008 1.75238e-005 3.56266e-009
Spine  -5.61107 0.674837 -4.98348
Spine1  6.21554 -0.336164 6.09307
HEad  -10.9711 -2.79319 1.56858
LeftShoulder1  3.20081 -5.15712 -30.9489
LeftArm  -41.113 13.3453 -49.737
LeftForeArm  103.964 -2.28214 6.79809
LeftHand  -0.715221 -5.96575 7.63434
RightShoulder  3.67795 6.41223 31.1992
RightArm  -33.782 -8.65323 48.07
RightForeArm  67.1155 2.33032 0.390047
RightHand  -0.642887 7.34878 -6.21515
LeftUpLeg  3.16712 0.718495 1.71012
LeftLeg  -2.79913 15.8353 -0.847867
LeftFoot  -0.576151 0.219902 -2.29348
LeftToes  4.76857e-008 1.46588e-008 1.31384e-009
133
root  -2.76115 40.9833 1.16235 166.332 -88.7386 -165.753
RightUpLeg  4.34349 -0.513566 -0.351398
RightLeg  -4.01918 -16.1421 1.03543
RightFoot  -0.0630521 -0.204069 1.90012
RightToes  -3.10678e-008 1.75238e-005 3.56266e-009
Spine  -5.80685 0.684304 -5.57192
Spine1  6.59729 -0.45335 6.80782
HEad  -10.2503 -3.2495 1.09908
LeftShoulder1  3.0662 -4.87351 -30.5845
LeftArm  -40.7638 14.2189 -50.2482
LeftForeArm  101.896 -3.04976 6.04541
LeftHand  -0.820308 -5.65322 8.92203
RightShoulder  3.72821 6.4603 31.5262
RightArm  -33.8505 -7.44889 45.5235
RightForeArm  67.8577 0.165858 -0.0429981
RightHand  -0.628776 8.60032 -5.5836
LeftUpLeg  3.43401 0.787792 1.71094
LeftLeg  -2.63216 15.512 -0.822748
LeftFoot  -0.674947 0.223901 -2.35524
LeftToes  4.76857e-008 1.46588e-008 1.31384e-009
134
root  -2.75856 40.9722 1.1548 165.614 -88.7768 -165.373
RightUpLeg  4.52177 -0.494347 -0.300041
RightLeg  -3.59967 -16.2236 0.849703
RightFoot  -0.302465 -0.208121 1.97082
RightToes  -3.10678e-008 1.75238e-005 3.56266e-009
Spine  -5.64551 0.711518 -6.18992
Spine1  6.59792 -0.601319 7.72222
HEad  -9.53068 -3.60534 0.320103
LeftShoulder1  2.89403 -4.56771 -29.8313
LeftArm  -40.3069 15.6742 -51.2538
LeftForeArm  99.0527 -4.12979 4.93876
LeftHand  -0.899162 -5.6804 9.72828
RightShoulder  3.74679 6.52502 31.4681
RightArm  -35.3099 -4.88953 41.4694
RightForeArm  62.0132 -1.95745 -0.716893
RightHand  -0.536331 8.28845 -4.88187
LeftUpLeg  3.62669 0.962388 1.79428
LeftLeg  -2.25604 15.2613 -0.816442
LeftFoot  -0.871931 0.214249 -2.28154
LeftToes  4.76857e-008 1.46588e-008 1.31384e-009
135
root  -2.74815 40.964 1.18381 163.575 -88.5879 -163.717
RightUpLeg  4.83124 -0.428824 -0.215209
RightLeg  -3.42599 -16.1239 0.709614
RightFoot  -0.379744 -0.219983 2.16273
RightToes  -3.10678e-008 1.75238e-005 3.56266e-009
Spine  -5.63105 1.02466 -6.95982
Spine1  6.79741 -0.573852 9.13676
HEad  -9.52504 -3.61883 -0.990978
LeftShoulder1  2.76514 -4.34662 -29.1787
LeftArm  -40.8517 17.0736 -52.8706
LeftForeArm  93.4709 -5.15281 4.05726
LeftHand  -0.779757 -5.96745 8.29092
RightShoulder  3.4398 6.04301 30.1147
RightArm  -36.5826 -2.47952 36.5919
RightForeArm  51.3688 -1.05578 -0.168387
RightHand  -0.329775 7.28072 -3.41504
LeftUpLeg  3.85618 1.12529 1.87854
LeftLeg  -1.83965 15.2194 -0.748674
LeftFoot  -1.12335 0.204164 -2.20843
LeftToes  4.76857e-008 1.46588e-008 1.31384e-009
136
root  -2.72305 40.9573 1.2598 163.952 -88.1905 -164.183
RightUpLeg  4.74265 -0.409915 -0.234631
RightLeg  -3.21508 -15.7569 0.612982
RightFoot  -0.394139 -0.217534 2.13275
RightToes  -3.10678e-008 1.75238e-005 3.56266e-009
Spine  -5.53623 1.26809 -6.80485
Spine1  6.51987 -0.373216 9.32998
HEad  -9.58614 -3.6073 -1.11268
LeftShoulder1  2.57765 -3.96068 -28.4775
LeftArm  -41.9469 18.5155 -54.2956
LeftForeArm  87.2413 -5.9225 3.43068
LeftHand  -0.728035 -6.19763 7.60082
RightShoulder  3.00226 5.35509 27.9351
RightArm  -38.2516 1.41255 31.3346
RightForeArm  40.8927 -0.183633 0.144864
RightHand  -0.599486 6.71858 -6.03996
LeftUpLeg  3.76598 1.17077 1.86021
LeftLeg  -1.42101 15.5628 -0.664423
LeftFoot  -1.38431 0.195724 -2.15305
LeftToes  4.76857e-008 1.46588e-008 1.31384e-009
137
root  -2.71613 40.9583 1.35724 167.463 -87.9672 -167.642
RightUpLeg  4.58763 -0.511 -0.464052
RightLeg  -3.09499 -15.3938 0.538367
RightFoot  -0.360829 -0.225265 2.26096
RightToes  -3.10678e-008 1.75238e-005 3.56266e-009
Spine  -5.29125 1.56479 -5.94836
Spine1  5.73197 0.0981773 8.52996
HEad  -9.27257 -3.95566 -1.14294
LeftShoulder1  2.5383 -3.90814 -28.1823
LeftArm  -42.876 20.082 -54.8185
LeftForeArm  83.6072 -6.65713 3.12666
LeftHand  -0.580375 -5.4211 6.55016
RightShoulder  2.55932 4.66962 25.2392
RightArm  -40.6324 5.31869 26.3407
RightForeArm  26.8726 1.08609 0.359394
RightHand  -0.935488 7.39006 -8.8576
LeftUpLeg  3.76067 1.10973 1.6571
LeftLeg  -1.49072 15.8943 -0.761032
LeftFoot  -1.45495 0.183431 -1.99467
LeftToes  4.76857e-008 1.46588e-008 1.31384e-009
138
root  -2.70707 40.9583 1.45092 166.054 -88.0963 -166.16
RightUpLeg  4.60581 -0.601111 -0.625619
RightLeg  -3.31164 -15.4076 0.617864
RightFoot  -0.230896 -0.238653 2.47735
RightToes  -3.10678e-008 1.75238e-005 3.56266e-009
Spine  -4.78748 1.81208 -4.30699
Spine1  4.68255 0.680305 6.69779
HEad  -9.21255 -3.96736 -0.813086
LeftShoulder1  2.48899 -3.85304 -27.75
LeftArm  -43.2783 21.3473 -54.762
LeftForeArm  81.3537 -7.12012 2.78199
LeftHand  -0.570248 -5.07934 6.62366
RightShoulder  2.05029 3.73329 22.1113
RightArm  -43.3849 9.07516 22.2893
RightForeArm  15.9521 2.26377 -0.0989677
RightHand  -1.27883 6.80235 -12.4383
LeftUpLeg  3.56665 1.11076 1.56649
LeftLeg  -1.32174 15.7719 -0.815105
LeftFoot  -1.5483 0.171926 -1.83233
LeftToes  4.76857e-008 1.46588e-008 1.31384e-009
139
root  -2.69916 40.9583 1.51416 162.483 -88.5684 -162.6
RightUpLeg  4.71356 -0.685611 -0.725469
RightLeg  -3.43613 -15.7696 0.66693
RightFoot  -0.183737 -0.239097 2.4934
RightToes  -3.10678e-008 1.75238e-005 3.56266e-009
Spine  -4.04369 1.87876 -2.08827
Spine1  3.58574 1.23352 3.81421
HEad  -9.21057 -3.93768 -0.0968374
LeftShoulder1  2.31604 -3.50546 -26.9389
LeftArm  -43.989 21.8332 -54.6696
LeftForeArm  81.6368 -7.17821 3.18065
LeftHand  -0.557078 -5.19751 6.41466
RightShoulder  1.60858 2.65958 19.7278
RightArm  -45.3449 12.8631 18.1617
RightForeArm  12.9802 1.79858 -0.619019
RightHand  -1.45516 6.98114 -13.9246
LeftUpLeg  3.3941 1.04025 1.46713
LeftLeg  -1.07303 15.3529 -0.751157
LeftFoot  -1.67804 0.168231 -1.77937
LeftToes  4.76857e-008 1.46588e-008 1.31384e-009
140
root  -2.68157 40.9597 1.5455 162.691 -89.0035 -162.781
RightUpLeg  4.61636 -0.773376 -0.892835
RightLeg  -3.25918 -16.0569 0.570369
RightFoot  -0.247161 -0.241839 2.5457
RightToes  -3.10678e-008 1.75238e-005 3.56266e-009
Spine  -3.62007 1.93376 -0.305106
Spine1  2.71184 1.72456 1.21677
HEad  -8.97486 -4.40595 0.320111
LeftShoulder1  2.29356 -3.52102 -26.5258
LeftArm  -44.2706 22.4371 -53.7937
LeftForeArm  81.7763 -7.31744 3.2831
LeftHand  -0.523373 -5.45708 5.91238
RightShoulder  1.2169 1.55437 17.5087
RightArm  -46.1577 15.8433 15.0156
RightForeArm  12.6934 1.63067 -0.389788
RightHand  -1.20174 6.3746 -12.1254
LeftUpLeg  3.32907 0.974624 1.31954
LeftLeg  -1.16194 15.0277 -0.871071
LeftFoot  -1.60545 0.165322 -1.73074
LeftToes  4.76857e-008 1.46588e-008 1.31384e-009
141
root  -2.67077 40.9639 1.54747 133.625 -89.727 -133.756
RightUpLeg  4.73156 -0.973202 -1.07067
RightLeg  -3.2534 -16.6139 0.670516
RightFoot  -0.30537 -0.244772 2.60171
RightToes  -3.10678e-008 1.75238e-005 3.56266e-009
Spine  -3.18307 1.7157 0.246908
Spine1  2.05805 1.68304 0.166709
HEad  -9.21868 -4.22973 0.516339
LeftShoulder1  2.48126 -3.98879 -27.0194
LeftArm  -44.0132 23.5051 -52.1787
LeftForeArm  80.0255 -7.59709 2.73693
LeftHand  -0.528827 -5.30964 6.04689
RightShoulder  0.932419 0.693331 15.566
RightArm  -47.5998 18.4836 12.9991
RightForeArm  12.764 3.42232 -0.363462
RightHand  -0.87777 6.70504 -8.75169
LeftUpLeg  3.33713 0.833892 1.18003
LeftLeg  -1.3102 14.3964 -0.872136
LeftFoot  -1.46647 0.169607 -1.79021
LeftToes  4.76857e-008 1.46588e-008 1.31384e-009
142
root  -2.66241 40.9691 1.50401 -0.200577 -90 0
RightUpLeg  4.83289 -1.01532 -1.05751
RightLeg  -3.28057 -16.7912 0.729828
RightFoot  -0.330181 -0.234837 2.45891
RightToes  -3.10678e-008 1.75238e-005 3.56266e-009
Spine  -3.08518 1.56754 -0.27444
Spine1  2.0561 1.47199 0.636687
HEad  -9.89158 -4.44078 0.171979
LeftShoulder1  2.49349 -3.9955 -27.1553
LeftArm  -44.9968 24.3499 -52.2025
LeftForeArm  77.5378 -7.95423 2.81579
LeftHand  -0.51336 -5.02075 6.02525
RightShoulder  0.855648 0.456813 14.8552
RightArm  -48.1038 20.7712 10.2144
RightForeArm  13.5228 8.2005 1.22818
RightHand  -0.812658 6.84312 -8.03361
LeftUpLeg  3.52778 0.863542 1.22835
LeftLeg  -1.62144 14.1315 -0.952327
LeftFoot  -1.30569 0.175057 -1.85106
LeftToes  4.76857e-008 1.46588e-008 1.31384e-009
143
root  -2.63318 40.9708 1.46135 154.541 -89.6432 -154.759
RightUpLeg  4.6741 -1.01332 -1.05664
RightLeg  -3.0859 -16.3875 0.68216
RightFoot  -0.386871 -0.229908 2.39474
RightToes  -3.10678e-008 1.75238e-005 3.56266e-009
Spine  -2.80565 1.8045 -0.938082
Spine1  1.82591 1.58092 1.52484
HEad  -10.6107 -5.0817 -0.228569
LeftShoulder1  2.45152 -3.90377 -26.994
LeftArm  -46.6467 24.7706 -53.2528
LeftForeArm  75.5863 -7.96024 3.43698
LeftHand  -0.496373 -5.13005 5.78002
RightShoulder  0.736406 0.0140092 14.1225
RightArm  -47.2531 22.6043 7.43961
RightForeArm  11.7211 15.4416 3.38143
RightHand  -0.736307 7.15259 -7.15178
LeftUpLeg  3.74797 0.804848 1.19292
LeftLeg  -2.04571 14.6128 -0.980944
LeftFoot  -1.11039 0.182413 -1.92901
LeftToes  4.76857e-008 1.46588e-008 1.31384e-009
